<?xml version="1.0" encoding="UTF-8"?>
<svg width="26px" height="28px" viewBox="0 0 26 28" version="1.1" xmlns="http://www.w3.org/2000/svg" xmlns:xlink="http://www.w3.org/1999/xlink">
    <title>Rectangle Copy</title>
    <g id="Articles" stroke="none" stroke-width="1" fill="none" fill-rule="evenodd">
        <g id="MODUS-Article-Desktop" transform="translate(-1185.000000, -6546.000000)">
            <rect id="Rectangle-Copy" fill="#000000" x="1185" y="6546" width="26" height="28"></rect>
            <path d="M1204.362,6555.23825 C1204.368,6555.37922 1204.372,6555.52019 1204.372,6555.66315 C1204.372,6559.99915 1201.07,6565 1195.032,6565 C1193.178,6565 1191.453,6564.45713 1190,6563.52634 C1190.257,6563.55633 1190.518,6563.57133 1190.783,6563.57133 C1192.321,6563.57133 1193.736,6563.04745 1194.86,6562.16665 C1193.423,6562.14066 1192.211,6561.19188 1191.793,6559.88818 C1191.994,6559.92617 1192.199,6559.94617 1192.411,6559.94617 C1192.71,6559.94617 1193,6559.90618 1193.276,6559.83119 C1191.774,6559.53026 1190.643,6558.20357 1190.643,6556.61394 L1190.643,6556.57194 C1191.085,6556.81789 1191.592,6556.96585 1192.13,6556.98285 C1191.249,6556.39399 1190.669,6555.38922 1190.669,6554.25148 C1190.669,6553.64962 1190.831,6553.08575 1191.114,6552.60086 C1192.733,6554.5864 1195.152,6555.8931 1197.88,6556.03007 C1197.824,6555.79013 1197.795,6555.53918 1197.795,6555.28224 C1197.795,6553.46966 1199.265,6552 1201.077,6552 C1202.022,6552 1202.875,6552.39891 1203.473,6553.03676 C1204.221,6552.88979 1204.924,6552.61686 1205.558,6552.24094 C1205.313,6553.00677 1204.792,6553.64962 1204.115,6554.05653 C1204.779,6553.97654 1205.411,6553.80058 1206,6553.53964 C1205.56,6554.19749 1205.003,6554.77536 1204.362,6555.23825 L1204.362,6555.23825 Z M1182,6574 L1213,6574 L1213,6543 L1182,6543 L1182,6574 Z" id="Fill-93" fill="#DBDBDB"></path>
        </g>
    </g>
</svg>