<?xml version="1.0" encoding="UTF-8"?>
<svg width="136px" height="48px" viewBox="0 0 136 48" version="1.1" xmlns="http://www.w3.org/2000/svg" xmlns:xlink="http://www.w3.org/1999/xlink">
    <title>RICS logo</title>
    <defs>
        <polygon id="path-1" points="0 5.94936709e-05 135.420684 5.94936709e-05 135.420684 46.900943 0 46.900943"></polygon>
    </defs>
    <g id="Symbols" stroke="none" stroke-width="1" fill="none" fill-rule="evenodd">
        <g id="Footer_Journals" transform="translate(-1624.000000, -58.000000)">
            <rect id="Rectangle" fill="#F7F7F7" x="0" y="0" width="1920" height="244"></rect>
            <g id="RICS-logo" transform="translate(1624.000000, 58.815000)">
                <mask id="mask-2" fill="white">
                    <use xlink:href="#path-1"></use>
                </mask>
                <g id="Clip-2"></g>
                <path d="M89.7328165,23.6205342 C89.7328165,29.5240911 95.2249747,33.2424456 103.977684,33.2424456 C106.081975,33.2424456 108.519728,32.867338 110.567797,32.1435975 L110.567797,28.9014899 C108.809759,29.5728759 106.888411,29.9604772 104.800184,29.9604772 C101.585146,29.9604772 96.8417152,28.3618823 96.8417152,23.3305025 C96.8417152,19.378338 99.7229937,16.6437114 104.36231,16.6437114 C106.199772,16.6437114 108.315367,16.9563506 110.567797,18.123319 L110.567797,14.8121987 C109.004899,14.1235595 106.478797,13.653857 103.789981,13.653857 C95.3528861,13.653857 89.7328165,17.4599646 89.7328165,23.6205342 L89.7328165,23.6205342 Z M80.8331582,32.8262873 L87.6439937,32.8262873 L87.6439937,14.0720975 L80.8331582,14.0720975 L80.8331582,32.8262873 Z M125.840418,21.3835722 C123.041241,20.4611228 119.853867,20.035743 119.853867,18.3333316 C119.853867,16.9887747 121.636297,16.5068759 123.09062,16.5068759 C124.968835,16.5068759 126.930937,17.0997304 128.539646,17.8859392 L128.539646,14.5736291 C126.589741,13.9659013 124.223975,13.653857 122.081905,13.653857 C116.201551,13.653857 112.862171,15.768857 112.862171,19.4934582 C112.862171,22.4958063 115.136614,24.134857 117.756418,24.9993 C120.996146,26.0684013 124.034785,26.4036481 124.034785,28.3142873 C124.034785,29.9045532 121.769861,30.3308253 120.097196,30.3308253 C117.419386,30.3308253 115.335918,29.9890342 113.024886,28.8292051 L113.027266,32.1557937 C115.335918,32.8384835 118.272228,33.2424456 120.729316,33.2424456 C129.22531,33.2424456 130.913146,29.4291987 130.913146,27.0786038 C130.913146,24.0310405 129.309494,22.5300152 125.840418,21.3835722 L125.840418,21.3835722 Z M70.3822025,24.0932114 C73.2001203,23.1761165 75.2818038,21.2931418 75.2818038,19.0439835 C75.2818038,17.1268 74.5473544,15.6385658 72.3529304,14.7309899 C70.678481,14.0426481 68.1961076,14.0716222 66.3720316,14.0716222 L55.8699114,14.0716222 L55.8699114,32.829857 L62.6801519,32.8262873 L62.6801519,16.839743 L64.229962,16.839743 C66.7798608,16.839743 68.2544114,17.7746861 68.2544114,19.7781354 C68.2544114,22.8176671 63.6748861,24.4299456 63.6748861,24.4299456 C65.4629684,27.0464772 67.2510506,29.4291987 68.3106329,30.5539266 C70.2667848,32.622819 71.7133734,33.2061544 74.4503797,33.2061544 C75.9674684,33.2061544 77.4786076,33.1189962 79.4392215,32.8262873 C76.7203608,31.1750405 71.8171899,25.8030595 70.3822025,24.0932114 L70.3822025,24.0932114 Z M133.068899,18.1973886 C131.925133,18.1973886 131.218051,17.3040911 131.218051,16.2117873 C131.218051,15.0424392 132.027759,14.2258886 133.068899,14.2258886 C134.097247,14.2258886 134.906361,15.0424392 134.906361,16.2117873 C134.906361,17.3876797 134.097247,18.1973886 133.068899,18.1973886 L133.068899,18.1973886 Z M133.068899,13.8085405 C131.796329,13.8085405 130.704025,14.7657937 130.704025,16.2117873 C130.704025,17.5804392 131.687158,18.6150342 133.068899,18.6150342 C134.32838,18.6150342 135.420684,17.6574835 135.420684,16.2117873 C135.420684,14.7657937 134.32838,13.8085405 133.068899,13.8085405 L133.068899,13.8085405 Z M132.593247,16.0767367 L132.593247,15.2991544 L133.120361,15.2991544 C133.383323,15.2991544 133.698639,15.3378253 133.698639,15.6590911 C133.698639,16.0446101 133.4095,16.0767367 133.08169,16.0767367 L132.593247,16.0767367 Z M134.13562,15.6912177 C134.13562,15.1513127 133.80781,14.9264266 133.165278,14.9264266 L132.155968,14.9264266 L132.155968,17.5869835 L132.593247,17.5869835 L132.593247,16.4494646 L133.004348,16.4494646 L133.691797,17.5869835 L134.187082,17.5869835 L133.441627,16.417338 C133.839639,16.3721228 134.13562,16.1731165 134.13562,15.6912177 L134.13562,15.6912177 Z M18.6087278,4.21667342 C20.5166899,4.21667342 22.061443,2.67102785 22.061443,0.764850633 C22.061443,0.567629114 22.0447848,0.250527848 22.0171203,0.00809113924 C19.6346962,0.153850633 17.3453797,0.654192405 15.2107468,1.45557215 C15.538557,3.02055316 16.9494494,4.21667342 18.6087278,4.21667342 L18.6087278,4.21667342 Z M28.1577595,4.18573671 C29.8125759,4.18573671 31.1972911,2.95451519 31.5295633,1.39250886 C29.3996899,0.608679747 27.1213797,0.128565823 24.7597785,5.94936709e-05 C24.7324114,0.234762025 24.7202152,0.587856962 24.7202152,0.771692405 C24.7202152,2.67311013 26.2527722,4.18573671 28.1577595,4.18573671 L28.1577595,4.18573671 Z M43.3515506,27.0637304 C42.3690127,27.8374456 40.9102278,28.1610911 38.8529367,26.6532241 C36.9271266,25.224781 35.4472215,25.0299392 35.4472215,25.0299392 C35.4472215,25.0299392 36.9928671,24.6821987 38.4796139,25.1533886 C39.4871392,25.4776291 40.0850506,25.826857 41.6149304,25.8081165 C42.8827405,25.7968127 44.2963101,25.1382177 44.2963101,25.1382177 C44.2963101,25.1382177 44.4831203,26.178762 43.3515506,27.0637304 L43.3515506,27.0637304 Z M33.8575506,2.39824937 L30.4063228,11.0197747 C32.3708038,11.481743 36.0498924,13.1041354 35.5046329,14.1336734 C35.2419684,14.6203316 34.6743987,15.0805152 34.9941772,15.2244899 C38.5435696,16.8888253 42.7405506,18.8720468 42.7405506,18.8720468 C42.7405506,18.8720468 43.010057,19.0606418 42.8827405,19.3292557 C42.3797215,20.3814013 41.0574747,20.8406924 41.0574747,20.8406924 C41.0574747,20.8406924 40.9203418,22.7200975 38.7937405,24.1616291 C38.399,22.6730975 37.1038228,21.5334962 35.4861899,21.5334962 C33.5571076,21.5334962 31.9989684,23.1026418 31.9989684,25.0239899 C31.9989684,26.9551544 33.6061899,28.4555848 35.5373544,28.4555848 C36.5210823,28.4555848 37.365,27.8493443 37.9941456,27.1946165 C38.4935949,30.7285405 35.9808797,32.5939646 35.9808797,32.5939646 C34.6743987,30.4114392 32.5591013,29.7921101 30.8147468,30.3174392 C18.9082785,24.6848759 24.3852658,15.6808063 24.6479304,15.2530468 C24.4129304,15.312243 24.1681139,15.3408 23.9146709,15.3408 C22.1307532,15.3408 20.6963608,13.8986734 20.6963608,12.1215975 C20.6963608,11.7000848 20.7760823,11.2985025 20.9266013,10.9293443 C20.9078608,10.9180405 19.6311266,11.8598253 19.6311266,13.5785975 C19.6311266,16.2534329 21.8859367,16.7531797 21.8859367,16.7531797 C21.8859367,16.7531797 19.6424304,20.4414899 20.9474241,25.1432747 C22.3791392,30.3037557 27.8242975,31.2000278 31.1711139,34.911838 C35.4014114,39.6055911 34.9941772,43.1371354 34.8237278,43.9655848 C42.0287089,39.9589835 46.9057025,32.2643696 46.9057025,23.4331291 C46.9057025,14.2148823 41.5917278,6.23321139 33.8575506,2.39824937 L33.8575506,2.39824937 Z M31.3085443,16.0166481 C32.1682278,16.0166481 32.8988101,15.4362873 33.1558228,14.6363949 C33.1558228,14.6363949 32.3452215,14.2214266 31.3841013,13.8156797 C30.4774177,13.4340278 29.5038038,13.216281 29.5038038,13.216281 C28.9118418,14.9213696 30.2284367,16.0166481 31.3085443,16.0166481 L31.3085443,16.0166481 Z M4.19906329,25.2682114 C5.86488608,21.0069772 9.81913291,18.0435975 9.81913291,18.0435975 C8.40586076,17.1910532 6.4211519,17.7256038 6.4211519,17.7256038 C9.96935443,12.8512873 14.7669241,11.5492684 16.3235759,11.0626101 L12.8774051,2.48035063 C5.24109494,6.35130633 0,14.2785405 0,23.4331291 C0,33.3299013 6.12338608,41.7949582 14.7844747,45.2438063 C3.40244304,38.0507241 4.19906329,25.2682114 4.19906329,25.2682114 L4.19906329,25.2682114 Z M22.1170696,32.4886608 C18.7556772,29.4866101 18.4341139,27.4727494 18.4341139,27.4727494 C17.7624304,28.2384329 17.3325886,29.1802177 17.3325886,29.1802177 C14.2627152,23.9307937 19.5865063,18.2235658 19.5865063,18.2235658 C14.2499241,20.9430215 13.0398228,27.3427557 13.2462658,29.9464962 C13.5508734,33.6761544 15.4835253,35.0210089 15.4835253,35.0210089 C15.7066266,33.1228633 16.3122722,31.6539646 16.3122722,31.6539646 C17.8008038,34.7259203 21.1541646,36.2736481 22.108443,42.0251987 C22.5629747,44.7395975 22.108443,46.3848949 21.9454304,46.8569772 C22.4436899,46.8885089 22.9461139,46.9010025 23.4494304,46.9010025 C25.2907595,46.9010025 27.0711076,46.6921797 28.7857152,46.2917873 C29.4642405,38.7601861 24.7324114,34.8225975 22.1170696,32.4886608 L22.1170696,32.4886608 Z" id="Fill-1" fill="#4B1963" mask="url(#mask-2)"></path>
            </g>
        </g>
    </g>
</svg>