<?xml version="1.0" encoding="UTF-8"?>
<svg width="36px" height="36px" viewBox="0 0 36 36" version="1.1" xmlns="http://www.w3.org/2000/svg" xmlns:xlink="http://www.w3.org/1999/xlink">
    <title>Fill 118</title>
    <g id="Symbols" stroke="none" stroke-width="1" fill="none" fill-rule="evenodd">
        <g id="Footer" transform="translate(-1726.000000, -123.000000)">
            <rect id="Rectangle" fill="#000000" x="0" y="0" width="1920" height="564"></rect>
            <path d="M1752.70968,149.709677 L1748.98586,149.709677 L1748.98586,143.647982 C1748.98586,142.202663 1748.96115,140.343727 1747.05038,140.343727 C1745.11265,140.343727 1744.81722,141.91874 1744.81722,143.545162 L1744.81722,149.709677 L1741.09677,149.709677 L1741.09677,137.245112 L1744.66669,137.245112 L1744.66669,138.949818 L1744.71836,138.949818 C1745.21487,137.969524 1746.43031,136.935484 1748.24223,136.935484 C1752.01322,136.935484 1752.70968,139.516495 1752.70968,142.873328 L1752.70968,149.709677 Z M1737.61472,136.935484 C1736.32808,136.935484 1735.29032,135.894369 1735.29032,134.612903 C1735.29032,133.331438 1736.32808,132.290323 1737.61472,132.290323 C1738.89531,132.290323 1739.93548,133.331438 1739.93548,134.612903 C1739.93548,135.894369 1738.89531,136.935484 1737.61472,136.935484 L1737.61472,136.935484 Z M1738.77419,149.709677 L1735.29032,149.709677 L1735.29032,138.096774 L1738.77419,138.096774 L1738.77419,149.709677 Z M1726,159 L1762,159 L1762,123 L1726,123 L1726,159 Z" id="Fill-118" fill="#FFFFFF"></path>
        </g>
    </g>
</svg>