<?xml version="1.0" encoding="UTF-8"?>
<svg width="31px" height="31px" viewBox="0 0 31 31" version="1.1" xmlns="http://www.w3.org/2000/svg" xmlns:xlink="http://www.w3.org/1999/xlink">
    <title>Fill 92</title>
    <g id="Articles" stroke="none" stroke-width="1" fill="none" fill-rule="evenodd">
        <g id="MODUS-Article-Desktop" transform="translate(-1106.000000, -6543.000000)">
            <rect id="Rectangle" fill="#000000" x="1108" y="6546" width="26" height="28"></rect>
            <path d="M1126,6553.656 L1124.55001,6553.657 C1123.41293,6553.657 1123.19244,6554.218 1123.19244,6555.041 L1123.19244,6556.857 L1125.90468,6556.857 L1125.55133,6559.702 L1123.19244,6559.702 L1123.19244,6567 L1120.36466,6567 L1120.36466,6559.702 L1118,6559.702 L1118,6556.857 L1120.36466,6556.857 L1120.36466,6554.76 C1120.36466,6552.325 1121.79637,6551 1123.88663,6551 C1124.88795,6551 1125.74871,6551.077 1126,6551.112 L1126,6553.656 Z M1106,6574 L1137,6574 L1137,6543 L1106,6543 L1106,6574 Z" id="Fill-92" fill="#DBDBDB"></path>
        </g>
    </g>
</svg>