<?xml version="1.0" encoding="UTF-8"?>
<svg width="142px" height="49px" viewBox="0 0 142 49" version="1.1" xmlns="http://www.w3.org/2000/svg" xmlns:xlink="http://www.w3.org/1999/xlink">
    <title>RICS logo</title>
    <defs>
        <polygon id="path-1" points="0 0.589473684 142 0.589473684 142 48.5894737 0 48.5894737"></polygon>
    </defs>
    <g id="symbols" stroke="none" stroke-width="1" fill="none" fill-rule="evenodd">
        <g id="Footer" transform="translate(-1242.000000, -116.000000)">
            <rect id="Rectangle" fill="#000000" x="0" y="0" width="1920" height="564"></rect>
            <g id="RICS-logo" transform="translate(1242.000000, 116.000000)">
                <mask id="mask-2" fill="white">
                    <use xlink:href="#path-1"></use>
                </mask>
                <g id="Clip-2"></g>
                <path d="M94.0924208,26.7634606 C94.0924208,32.8053591 99.8514116,36.6108478 109.029364,36.6108478 C111.235891,36.6108478 113.792081,36.2269501 115.939654,35.4862498 L115.939654,32.168168 C114.096203,32.8552871 112.081508,33.2519712 109.891825,33.2519712 C106.520587,33.2519712 101.5467,31.6159155 101.5467,26.4666325 C101.5467,22.4218546 104.567964,19.6231459 109.432678,19.6231459 C111.359412,19.6231459 113.577791,19.9431114 115.939654,21.137426 L115.939654,17.7487144 C114.300823,17.0439378 111.651993,16.5632285 108.832543,16.5632285 C99.9855374,16.5632285 94.0924208,20.4585268 94.0924208,26.7634606 L94.0924208,26.7634606 Z M84.760379,36.1849375 L91.902114,36.1849375 L91.902114,16.9912699 L84.760379,16.9912699 L84.760379,36.1849375 Z M131.954284,24.4740786 C129.019111,23.5300129 125.676881,23.094665 125.676881,21.35236 C125.676881,19.9762953 127.545909,19.4831039 129.070889,19.4831039 C131.040356,19.4831039 133.097785,20.0898511 134.784652,20.8944836 L134.784652,17.5045542 C132.740012,16.8825851 130.259307,16.5632285 128.013167,16.5632285 C121.847119,16.5632285 118.345498,18.7277905 118.345498,22.5396725 C118.345498,25.6123764 120.730443,27.2898358 123.477529,28.1745359 C126.874656,29.26869 130.060926,29.6117929 130.060926,31.5672052 C130.060926,33.1947367 127.685962,33.6309979 125.932032,33.6309979 C123.124122,33.6309979 120.93943,33.2811974 118.516119,32.0941893 L118.518614,35.4987318 C120.93943,36.1974195 124.018399,36.6108478 126.594863,36.6108478 C135.503629,36.6108478 137.273467,32.708243 137.273467,30.3025652 C137.273467,27.1835866 135.591902,25.6473869 131.954284,24.4740786 L131.954284,24.4740786 Z M73.8016712,27.2472144 C76.7564954,26.3086286 78.9393161,24.3815291 78.9393161,22.079665 C78.9393161,20.117555 78.169184,18.5944462 75.8681454,17.6656025 C74.1123441,16.9611304 71.5093664,16.9907835 69.596669,16.9907835 L58.5843108,16.9907835 L58.5843108,36.1885908 L65.725422,36.1849375 L65.725422,19.8237713 L67.3505285,19.8237713 C70.0243122,19.8237713 71.5705029,20.7806234 71.5705029,22.8310207 C71.5705029,25.9417795 66.7684846,27.5918394 66.7684846,27.5918394 C68.6434396,30.2696858 70.5183945,32.708243 71.6294559,33.8593272 C73.680646,35.9767012 75.1975161,36.5737063 78.0674979,36.5737063 C79.6582931,36.5737063 81.24285,36.4845056 83.2987189,36.1849375 C80.4477643,34.4949961 75.3063764,28.9971303 73.8016712,27.2472144 L73.8016712,27.2472144 Z M139.533955,21.2132314 C138.334621,21.2132314 137.593185,20.2990007 137.593185,19.1811003 C137.593185,17.9843502 138.442233,17.1486649 139.533955,17.1486649 C140.612265,17.1486649 141.460689,17.9843502 141.460689,19.1811003 C141.460689,20.3845481 140.612265,21.2132314 139.533955,21.2132314 L139.533955,21.2132314 Z M139.533955,16.7215368 C138.199559,16.7215368 137.054186,17.7012219 137.054186,19.1811003 C137.054186,20.5818247 138.085084,21.6406639 139.533955,21.6406639 C140.854627,21.6406639 142,20.6606744 142,19.1811003 C142,17.7012219 140.854627,16.7215368 139.533955,16.7215368 L139.533955,16.7215368 Z M139.035194,19.042885 L139.035194,18.2470812 L139.587918,18.2470812 C139.863656,18.2470812 140.194291,18.2866583 140.194291,18.6154525 C140.194291,19.0100056 139.891105,19.042885 139.547368,19.042885 L139.035194,19.042885 Z M140.652503,18.6483319 C140.652503,18.0957749 140.308766,17.865619 139.635018,17.865619 L138.576671,17.865619 L138.576671,20.5885223 L139.035194,20.5885223 L139.035194,19.4243472 L139.466269,19.4243472 L140.187117,20.5885223 L140.706465,20.5885223 L139.924792,19.3914678 C140.342142,19.345193 140.652503,19.1415233 140.652503,18.6483319 L140.652503,18.6483319 Z M19.5128195,6.90489796 C21.5134785,6.90489796 23.1332824,5.32303239 23.1332824,3.37218662 C23.1332824,3.17034349 23.1158148,2.84581141 23.0868062,2.59769354 C20.5886338,2.7468687 18.1880925,3.25893527 15.94975,4.07909421 C16.2934866,5.68074833 17.7729262,6.90489796 19.5128195,6.90489796 L19.5128195,6.90489796 Z M29.525784,6.8732363 C31.2609985,6.8732363 32.7129891,5.61316285 33.0614044,4.01455312 C30.8280526,3.21235609 28.4390525,2.72099138 25.9627145,2.58947368 C25.9340178,2.82967614 25.9212291,3.19104535 25.9212291,3.37918872 C25.9212291,5.32516346 27.5282442,6.8732363 29.525784,6.8732363 L29.525784,6.8732363 Z M45.4577545,30.2873432 C44.4274806,31.0791894 42.8978218,31.4104191 40.7405787,29.8672173 C38.7212045,28.4053007 37.1693993,28.2058931 37.1693993,28.2058931 C37.1693993,28.2058931 38.7901389,27.8500038 40.3491183,28.3322353 C41.4055935,28.6640739 42.032554,29.0214855 43.6367618,29.0023058 C44.9661676,28.9907371 46.4484145,28.3167089 46.4484145,28.3167089 C46.4484145,28.3167089 46.6443006,29.3816369 45.4577545,30.2873432 L45.4577545,30.2873432 Z M35.5024954,5.04386173 L31.8835921,13.8674202 C33.943516,14.3402142 37.8013505,16.000625 37.2296,17.0542888 C36.954174,17.5523511 36.3590294,18.0233184 36.6943441,18.170667 C40.4161812,19.8740037 44.8170695,21.9036992 44.8170695,21.9036992 C44.8170695,21.9036992 45.0996696,22.0967136 44.9661676,22.3716221 C44.4387098,23.4484232 43.0522225,23.9184772 43.0522225,23.9184772 C43.0522225,23.9184772 42.9084271,25.8419235 40.6785065,27.3172354 C40.2645878,25.7938221 38.9064853,24.6275159 37.2102609,24.6275159 C35.1874555,24.6275159 33.5536152,26.2334322 33.5536152,28.1998043 C33.5536152,30.176223 35.2389224,31.7118138 37.2639112,31.7118138 C38.2954328,31.7118138 39.1803516,31.0913669 39.8400638,30.4212964 C40.3637785,34.038033 37.7289849,35.9471706 37.7289849,35.9471706 C36.3590294,33.7135009 34.1409618,33.0796587 32.3118591,33.6172981 C19.8269236,27.8527437 25.5700064,18.6376765 25.8454323,18.1998931 C25.599015,18.2604765 25.3423043,18.2897026 25.076548,18.2897026 C23.2059599,18.2897026 21.7018786,16.8137819 21.7018786,14.9950627 C21.7018786,14.5636725 21.7854733,14.1526797 21.9433051,13.7748708 C21.9236541,13.7633021 20.5848907,14.7271563 20.5848907,16.4862054 C20.5848907,19.2237218 22.9492492,19.7351795 22.9492492,19.7351795 C22.9492492,19.7351795 20.5967437,23.5099199 21.9651396,28.3218844 C23.4664136,33.603294 29.1761209,34.520569 32.6855401,38.3193601 C37.1213635,43.1231047 36.6943441,46.7374057 36.5156136,47.5852686 C44.0706434,43.4847783 49.1845823,35.6098521 49.1845823,26.571664 C49.1845823,17.1374006 43.612432,8.96869064 35.5024954,5.04386173 L35.5024954,5.04386173 Z M32.8296474,18.9813883 C33.731098,18.9813883 34.4971751,18.3874276 34.7666746,17.5687909 C34.7666746,17.5687909 33.9166908,17.1440983 32.9088752,16.7288434 C31.9581411,16.338248 30.9372249,16.1153986 30.9372249,16.1153986 C30.3165028,17.8604435 31.6970636,18.9813883 32.8296474,18.9813883 L32.8296474,18.9813883 Z M4.40307176,28.4497488 C6.14982735,24.0886587 10.2961884,21.0558363 10.2961884,21.0558363 C8.81425346,20.1833139 6.73311894,20.7303909 6.73311894,20.7303909 C10.4537083,15.7418518 15.4843644,14.4093218 17.1166451,13.9112595 L13.5030445,5.12788692 C5.49572976,9.08955297 0,17.2025506 0,26.571664 C0,36.7003529 6.42088638,45.3637765 15.5027677,48.8934434 C3.56774828,41.5318015 4.40307176,28.4497488 4.40307176,28.4497488 L4.40307176,28.4497488 Z M23.1916115,35.8393992 C19.6669083,32.7669997 19.3297221,30.705947 19.3297221,30.705947 C18.6254053,31.4895733 18.17468,32.4534275 18.17468,32.4534275 C14.9556589,27.0809906 20.5381026,21.240022 20.5381026,21.240022 C14.9422464,24.0232043 13.6733532,30.5729071 13.8898261,33.2376626 C14.2092329,37.0547201 16.2357813,38.4310892 16.2357813,38.4310892 C16.4697217,36.4884633 17.1047922,34.985143 17.1047922,34.985143 C18.665643,38.1290857 22.1819244,39.7130823 23.1825658,45.5994124 C23.6591806,48.3774192 23.1825658,50.0612718 23.0116333,50.5444167 C23.5341004,50.5766872 24.0609344,50.5894737 24.5887041,50.5894737 C26.5194928,50.5894737 28.3863379,50.3757574 30.1842484,49.9659824 C30.8957394,42.2578888 25.9340178,38.2280284 23.1916115,35.8393992 L23.1916115,35.8393992 Z" id="Fill-1" fill="#FFFFFF" mask="url(#mask-2)"></path>
            </g>
        </g>
    </g>
</svg>