<?xml version="1.0" encoding="UTF-8"?>
<svg width="31px" height="31px" viewBox="0 0 31 31" version="1.1" xmlns="http://www.w3.org/2000/svg" xmlns:xlink="http://www.w3.org/1999/xlink">
    <title>Fill 118</title>
    <g id="Articles" stroke="none" stroke-width="1" fill="none" fill-rule="evenodd">
        <g id="MODUS-Article-Desktop" transform="translate(-1257.000000, -6543.000000)">
            <rect id="Rectangle-Copy-2" fill="#000000" x="1262" y="6546" width="26" height="28"></rect>
            <path d="M1280,6566 L1276.79338,6566 L1276.79338,6560.78021 C1276.79338,6559.53563 1276.7721,6557.93488 1275.12672,6557.93488 C1273.45812,6557.93488 1273.20371,6559.29114 1273.20371,6560.69167 L1273.20371,6566 L1270,6566 L1270,6555.26662 L1273.0741,6555.26662 L1273.0741,6556.73457 L1273.11859,6556.73457 C1273.54614,6555.89042 1274.59276,6555 1276.15303,6555 C1279.40027,6555 1280,6557.22254 1280,6560.11314 L1280,6566 Z M1267.00156,6555 C1265.89363,6555 1265,6554.10348 1265,6553 C1265,6551.89652 1265.89363,6551 1267.00156,6551 C1268.10429,6551 1269,6551.89652 1269,6553 C1269,6554.10348 1268.10429,6555 1267.00156,6555 L1267.00156,6555 Z M1268,6566 L1265,6566 L1265,6556 L1268,6556 L1268,6566 Z M1257,6574 L1288,6574 L1288,6543 L1257,6543 L1257,6574 Z" id="Fill-118" fill="#DBDBDB"></path>
        </g>
    </g>
</svg>