<?xml version="1.0" encoding="UTF-8"?>
<svg width="36px" height="36px" viewBox="0 0 36 36" version="1.1" xmlns="http://www.w3.org/2000/svg" xmlns:xlink="http://www.w3.org/1999/xlink">
    <title>Path</title>
    <g id="Symbols" stroke="none" stroke-width="1" fill="none" fill-rule="evenodd">
        <g id="Footer" transform="translate(-1626.000000, -123.000000)">
            <rect id="Rectangle" fill="#000000" x="0" y="0" width="1920" height="564"></rect>
            <path d="M1649.22581,135.37471 L1647.54194,135.375871 C1646.22146,135.375871 1645.96542,136.027355 1645.96542,136.983097 L1645.96542,139.092 L1649.11511,139.092 L1648.70477,142.395871 L1645.96542,142.395871 L1645.96542,150.870968 L1642.68155,150.870968 L1642.68155,142.395871 L1639.93548,142.395871 L1639.93548,139.092 L1642.68155,139.092 L1642.68155,136.656774 C1642.68155,133.829032 1644.34417,132.290323 1646.77157,132.290323 C1647.9344,132.290323 1648.93398,132.379742 1649.22581,132.420387 L1649.22581,135.37471 Z M1626,159 L1662,159 L1662,123 L1626,123 L1626,159 Z" id="Fill-92" fill="#FFFFFF"></path>
        </g>
    </g>
</svg>