<?xml version="1.0" encoding="UTF-8"?>
<svg width="36px" height="36px" viewBox="0 0 36 36" version="1.1" xmlns="http://www.w3.org/2000/svg" xmlns:xlink="http://www.w3.org/1999/xlink">
    <title>Fill 93</title>
    <g id="Symbols" stroke="none" stroke-width="1" fill="none" fill-rule="evenodd">
        <g id="Footer" transform="translate(-1676.000000, -123.000000)">
            <rect id="Rectangle" fill="#000000" x="0" y="0" width="1920" height="564"></rect>
            <path d="M1701.96877,137.212164 C1701.97574,137.375869 1701.98039,137.539573 1701.98039,137.705599 C1701.98039,142.740953 1698.14581,148.548387 1691.13394,148.548387 C1688.9809,148.548387 1686.97768,147.917952 1685.29032,146.83704 C1685.58877,146.871871 1685.89187,146.889286 1686.19961,146.889286 C1687.98568,146.889286 1689.6289,146.28091 1690.93419,145.25805 C1689.26542,145.227863 1687.85794,144.126053 1687.37252,142.61208 C1687.60594,142.656198 1687.844,142.679419 1688.09019,142.679419 C1688.43742,142.679419 1688.77419,142.632978 1689.09471,142.545901 C1687.35045,142.196434 1686.03703,140.655757 1686.03703,138.809731 L1686.03703,138.760968 C1686.55032,139.04658 1687.1391,139.218411 1687.76387,139.238149 C1686.74077,138.554306 1686.06723,137.387479 1686.06723,136.066235 C1686.06723,135.3673 1686.25535,134.712483 1686.584,134.149387 C1688.46413,136.455178 1691.27329,137.972634 1694.44129,138.131694 C1694.37626,137.853049 1694.34258,137.561632 1694.34258,137.263249 C1694.34258,135.158316 1696.04968,133.451613 1698.15394,133.451613 C1699.25135,133.451613 1700.24194,133.914861 1700.93639,134.655593 C1701.80503,134.484923 1702.62142,134.167964 1703.35768,133.731419 C1703.07316,134.620762 1702.46813,135.3673 1701.68194,135.839836 C1702.45303,135.746954 1703.18697,135.542614 1703.87097,135.239587 C1703.36,136.00354 1702.71316,136.674611 1701.96877,137.212164 L1701.96877,137.212164 Z M1676,159 L1712,159 L1712,123 L1676,123 L1676,159 Z" id="Fill-93" fill="#FFFFFF"></path>
        </g>
    </g>
</svg>